<?xml version="1.0" encoding="utf-8"?>
<!-- Generator: Adobe Illustrator 16.0.0, SVG Export Plug-In . SVG Version: 6.00 Build 0)  -->
<!DOCTYPE svg PUBLIC "-//W3C//DTD SVG 1.1//EN" "http://www.w3.org/Graphics/SVG/1.1/DTD/svg11.dtd">
<svg version="1.1" id="Layer_1" xmlns="http://www.w3.org/2000/svg" xmlns:xlink="http://www.w3.org/1999/xlink" x="0px" y="0px"
	 width="16px" height="16px" viewBox="4 -956 16 16" enable-background="new 4 -956 16 16" xml:space="preserve">
<path fill="#FFFFFF" d="M12-948c-1.1,0-2.042-0.392-2.825-1.175C8.392-949.958,8-950.9,8-952s0.392-2.042,1.175-2.825
	C9.958-955.608,10.9-956,12-956c1.1,0,2.041,0.392,2.825,1.175C15.608-954.042,16-953.1,16-952s-0.392,2.042-1.175,2.825
	C14.041-948.392,13.1-948,12-948z M4-940v-2.8c0-0.567,0.146-1.088,0.438-1.563c0.292-0.475,0.679-0.838,1.163-1.088
	c1.033-0.517,2.083-0.904,3.15-1.162C9.816-946.871,10.9-947,12-947c1.1,0,2.184,0.129,3.25,0.388
	c1.066,0.258,2.117,0.646,3.15,1.162c0.482,0.25,0.871,0.613,1.162,1.088C19.854-943.888,20-943.367,20-942.8v2.8H4z M6-942h12v-0.8
	c0-0.184-0.046-0.35-0.138-0.5c-0.091-0.15-0.212-0.267-0.362-0.35c-0.9-0.45-1.809-0.788-2.725-1.013
	C13.858-944.888,12.934-945,12-945s-1.858,0.112-2.775,0.337S7.4-944.1,6.5-943.65c-0.15,0.083-0.271,0.2-0.362,0.35
	C6.046-943.15,6-942.983,6-942.8V-942z M12-950c0.55,0,1.021-0.196,1.412-0.587C13.805-950.979,14-951.45,14-952
	s-0.195-1.021-0.588-1.413C13.021-953.804,12.55-954,12-954s-1.021,0.196-1.413,0.587C10.196-953.021,10-952.55,10-952
	s0.196,1.021,0.587,1.413C10.979-950.196,11.45-950,12-950z"/>
</svg>
